<svg width="80" height="80" viewBox="0 0 80 80" fill="none" xmlns="http://www.w3.org/2000/svg">
    <path d="M46.6667 10C37.3333 18.6667 36.6667 28 31.6667 40C31 41.3333 30.3333 42.6667 29.6667 44L26.6667 44C24.6667 44 23.6667 44.6667 22.3333 46L18.6667 49.6667C17.3333 51 17.3333 53 18.6667 54.3333L25.6667 61.3333C27 62.6667 29 62.6667 30.3333 61.3333L34 57.6667C35.3333 56.3333 36 55.3333 36 53.3333L36 50.3333C37.3333 49.6667 38.6667 49 40 48.3333C52 43.3333 61.3333 42.6667 70 33.3333" stroke="#2e7d32" stroke-width="3" stroke-linecap="round" stroke-linejoin="round"/>
    <path d="M60 20L70 10L46.6667 10L56.6667 20H60Z" fill="#2e7d32"/>
    <path d="M33.3333 50L30 46.6667" stroke="#2e7d32" stroke-width="3" stroke-linecap="round" stroke-linejoin="round"/>
    <path d="M40 56.6667L36.6667 53.3333" stroke="#2e7d32" stroke-width="3" stroke-linecap="round" stroke-linejoin="round"/>
    <path d="M26.6667 43.3333L23.3333 40" stroke="#2e7d32" stroke-width="3" stroke-linecap="round" stroke-linejoin="round"/>
    <path fill-rule="evenodd" clip-rule="evenodd" d="M36.6666 16.6667C36.6666 18.5076 35.1743 20 33.3333 20C31.4924 20 30 18.5076 30 16.6667C30 14.8257 31.4924 13.3333 33.3333 13.3333C35.1743 13.3333 36.6666 14.8257 36.6666 16.6667ZM53.3333 30C53.3333 31.841 51.841 33.3333 50 33.3333C48.1591 33.3333 46.6667 31.841 46.6667 30C46.6667 28.1591 48.1591 26.6667 50 26.6667C51.841 26.6667 53.3333 28.1591 53.3333 30Z" fill="#81c784"/>
</svg> 