<svg width="100" height="100" viewBox="0 0 100 100" fill="none" xmlns="http://www.w3.org/2000/svg">
    <path d="M13.4902 37.5293C20.2734 24.1895 39.1299 9.55078 65.3712 18.8652C65.5269 17.8809 65.625 16.8965 65.6689 15.9121C65.8232 12.3652 65.4043 8.99584 64.5081 5.93847C60.4248 10.0357 53.8186 13.1832 47.2124 15.9121C34.3479 21.2824 24.5885 21.9903 8.9033 38.3628M13.4902 37.5293C13.4902 37.5293 0.625834 45.2732 2.50001 69.9999C19.5 74.4999 34.5 65.4999 42.5 58.9999C46.5 55.9999 50.5 52.6653 53.5 50.9999C58.4999 48.3814 63.6797 46.2633 69.373 44.9178C74.1376 43.7686 78.5 43.4999 87.5 42.9999" stroke="#2e7d32" stroke-width="2"/>
    <path d="M48.168 80.6221C47.5312 82.7011 45.3582 83.8311 43.2792 83.1944C41.2002 82.5576 40.0703 80.3845 40.707 78.3055C41.3438 76.2265 43.5168 75.0966 45.5958 75.7334C47.6748 76.3701 48.8048 78.5432 48.168 80.6221Z" fill="#2e7d32"/>
    <path d="M44.8359 77.0293L51.4999 95.9999" stroke="#2e7d32" stroke-width="4" stroke-linecap="round"/>
    <path d="M13.4902 37.5293C20.2734 24.1895 39.1299 9.55078 65.3712 18.8652C65.5269 17.8809 65.625 16.8965 65.6689 15.9121C65.8232 12.3652 65.4043 8.99584 64.5081 5.93847C60.4248 10.0357 53.8186 13.1832 47.2124 15.9121C34.3479 21.2824 24.5885 21.9903 8.9033 38.3628" fill="#60ad5e"/>
</svg> 