<svg width="100" height="100" viewBox="0 0 100 100" fill="none" xmlns="http://www.w3.org/2000/svg">
    <path d="M84.8392 26.7988C69.5097 21.4883 41.1467 22.5787 28.7866 53.3594C27.9799 52.7327 27.1733 52.0848 26.3877 51.4157C23.5992 49.2561 21.1341 46.9208 19.1109 44.4718C25.0881 43.4662 31.8162 40.6157 38.0217 36.7848C50.0233 28.9202 57.2322 21.6236 63.3941 2.19922C63.3941 2.19922 78.7236 7.50967 84.8392 26.7988ZM84.8392 26.7988C84.8392 42.9066 75.5762 70.4101 43.5701 73.7618C43.9734 74.7251 44.3978 75.6672 44.8433 76.5881C46.5432 79.7533 48.6528 82.5189 50.9952 84.9255C53.1903 79.2521 57.0902 73.1694 62.0731 67.9835C71.7726 57.625 80.4514 52.2078 98.5991 49.1987" fill="#81c784"/>
    <path d="M8.5 88.9375C8.5 92.8033 5.36577 96 1.5 96C1.5 96 1.5 92.8033 1.5 88.9375C1.5 85.0717 1.5 81.875 1.5 81.875C5.36577 81.875 8.5 85.0717 8.5 88.9375Z" fill="#2e7d32"/>
    <path d="M3 81.875L37.5 38.5" stroke="#2e7d32" stroke-width="4" stroke-linecap="round"/>
</svg> 