<svg width="100" height="100" viewBox="0 0 100 100" fill="none" xmlns="http://www.w3.org/2000/svg">
    <path d="M50.9999 9.41406C40.2555 17.5855 22.1878 39.7637 31.5023 65.9151C30.5179 66.0474 29.5335 66.1356 28.5491 66.1797C25.0022 66.3339 21.6329 65.9151 18.5755 65.0188C22.6728 60.9355 25.8202 54.3293 28.5491 47.7232C33.9195 34.8587 34.6274 25.0993 50.9999 9.41406ZM50.9999 9.41406C61.7442 17.5855 79.8119 39.7637 70.4974 65.9151C71.4818 66.0474 72.4663 66.1356 73.4507 66.1797C76.9976 66.3339 80.3669 65.9151 83.4242 65.0188C79.327 60.9355 76.1796 54.3293 73.4507 47.7232C68.0803 34.8587 67.3724 25.0993 50.9999 9.41406Z" fill="#60ad5e"/>
    <path d="M55 71.4141C55 73.6232 53.2091 75.4141 51 75.4141C48.7909 75.4141 47 73.6232 47 71.4141C47 69.2049 48.7909 67.4141 51 67.4141C53.2091 67.4141 55 69.2049 55 71.4141Z" fill="#2e7d32"/>
    <path d="M51 67.4141V93.4141" stroke="#2e7d32" stroke-width="4" stroke-linecap="round"/>
</svg> 