<svg width="140" height="140" viewBox="0 0 140 140" fill="none" xmlns="http://www.w3.org/2000/svg">
    <circle cx="70" cy="70" r="70" fill="#2e7d32"/>
    <path d="M70 120C97.6142 120 120 97.6142 120 70C120 42.3858 97.6142 20 70 20C42.3858 20 20 42.3858 20 70C20 97.6142 42.3858 120 70 120Z" fill="#81c784"/>
    <path d="M56 65C59.866 65 63 61.866 63 58C63 54.134 59.866 51 56 51C52.134 51 49 54.134 49 58C49 61.866 52.134 65 56 65Z" fill="#2e7d32"/>
    <path d="M84 65C87.866 65 91 61.866 91 58C91 54.134 87.866 51 84 51C80.134 51 77 54.134 77 58C77 61.866 80.134 65 84 65Z" fill="#2e7d32"/>
    <path d="M70 90C77.1797 90 83 87.3137 83 84C83 80.6863 77.1797 78 70 78C62.8203 78 57 80.6863 57 84C57 87.3137 62.8203 90 70 90Z" fill="#2e7d32"/>
    <path d="M44.9996 36.6673C44.9996 36.6673 50.9996 29.334 69.9996 36.6673C88.9996 44.0007 94.9996 36.6673 94.9996 36.6673" stroke="#2e7d32" stroke-width="3" stroke-linecap="round"/>
    <path d="M38 31.334C38 31.334 45.9998 21.334 69.9998 31.334C93.9998 41.334 101.999 31.334 101.999 31.334" stroke="#2e7d32" stroke-width="3" stroke-linecap="round"/>
    <path d="M50 42.0007C50 42.0007 54.9998 35.334 69.9998 42.0007C84.9998 48.6673 89.9996 42.0007 89.9996 42.0007" stroke="#2e7d32" stroke-width="3" stroke-linecap="round"/>
</svg> 